<svg xmlns="http://www.w3.org/2000/svg" xmlns:xlink="http://www.w3.org/1999/xlink" viewBox="0 0 300 300"><defs><style>.cls-1{fill:none;}.cls-2{fill:#727293;}.cls-3{clip-path:url(#clip-path);}.cls-4{fill:#ffad76;}.cls-5{clip-path:url(#clip-path-2);}.cls-6{fill:#f29853;}.cls-7{fill:#ff6f38;}.cls-8{fill:#884c34;}.cls-9{fill:#ab6243;}.cls-10{fill:#fff;}.cls-11{fill:#574941;}.cls-12{fill:#e08a4f;}.cls-13{clip-path:url(#clip-path-3);}</style><clipPath id="clip-path"><circle id="_Clipping_Path_" data-name="&lt;Clipping Path&gt;" class="cls-1" cx="150" cy="150" r="150"/></clipPath><clipPath id="clip-path-2"><path class="cls-1" d="M187.39,204.06H104c11.65,40,10.89,73.09-8.25,95.94H197.61C183.85,273.26,184.06,239.45,187.39,204.06Z"/></clipPath><clipPath id="clip-path-3"><path class="cls-1" d="M241.24,17.17a6.73,6.73,0,0,0-10.73-3.43,118.63,118.63,0,0,1-69,26.44c-41,2-63.57,5.82-81.8,20a50.64,50.64,0,0,0-17.34,20,50.11,50.11,0,0,0-2.28,5.61,71.09,71.09,0,0,0-2.42,11.15c-2,14.24-1.35,37.06,11.95,66.87,9.86,22.1,5.22,35.17,1.22,41.29A4.58,4.58,0,0,0,73,211.9c9,3.44,27,8.28,44,.44A25.83,25.83,0,0,1,113.32,201l-.75-21.38a12.91,12.91,0,0,1-7.35,3.11h0a14.53,14.53,0,0,1-14.18-13l-1.8-20.91L88.92,145a13,13,0,0,1,5.7-11.89,12.89,12.89,0,0,1,6.15-2.19h0A13,13,0,0,1,111,134.62h0a35.73,35.73,0,0,1,31.44-36.78,96.38,96.38,0,0,1,15.64-.47c2.4.11,4.9.29,7.54.56,16.43,1.7,33.46.43,47.53-5.17C237.59,83,253.14,60.25,241.24,17.17Z"/></clipPath></defs><title>man</title><g id="Layer_2" data-name="Layer 2"><g id="Layer_1-2" data-name="Layer 1"><g id="_Group_" data-name="&lt;Group&gt;"><circle class="cls-2" cx="150" cy="150" r="150"/></g><circle id="_Clipping_Path_2" data-name="&lt;Clipping Path&gt;" class="cls-2" cx="150" cy="150" r="150"/><g class="cls-3"><path class="cls-4" d="M187.39,204.06H104c11.65,40,10.89,73.09-8.25,95.94H197.61C183.85,273.26,184.06,239.45,187.39,204.06Z"/><g class="cls-5"><path class="cls-6" d="M187.39,204.06H104c8.38,28.78,10.33,54,3.65,74.37,31.66-6.79,59-21.66,83.19-42.25C185.31,213.8,184.9,230.49,187.39,204.06Z"/><path class="cls-7" d="M84.29,280.91V300H212V280.91C195.93,301.57,142.55,293.14,84.29,280.91Z"/></g><path class="cls-4" d="M165.62,97.93c-2.64-.27-5.14-.45-7.54-.56-39.56-1.8-47.4,17.52-47.75,18.42l.66,18.84a13,13,0,0,0-10.22-3.71h0a12.89,12.89,0,0,0-6.15,2.19A13,13,0,0,0,88.92,145l.33,3.86,1.9,22.07a13.05,13.05,0,0,0,14.08,11.85h0a12.91,12.91,0,0,0,7.35-3.11l.75,21.38a25.9,25.9,0,0,0,21.6,23.34l42.2,11.73c22.49,3.69,39.23-14.63,37.28-37.33L216,89.8C202,95.4,182,99.63,165.62,97.93Z"/><path class="cls-4" d="M165.62,97.93c-2.64-.27-5.14-.45-7.54-.56-39.56-1.8-47.4,17.52-47.75,18.42l.66,18.84a13,13,0,0,0-10.22-3.71h0a12.89,12.89,0,0,0-6.15,2.19A13,13,0,0,0,88.92,145l.33,3.86,1.9,22.07a13.05,13.05,0,0,0,14.08,11.85h0a12.91,12.91,0,0,0,7.35-3.11l.75,21.38a25.9,25.9,0,0,0,21.6,23.34l42.2,11.73c22.49,3.69,39.23-14.63,37.28-37.33L216,89.8C202,95.4,182,99.63,165.62,97.93Z"/><path class="cls-6" d="M110.33,115.78l.66,18.84a13,13,0,0,0-10.22-3.71h0a12.89,12.89,0,0,0-6.15,2.19A13,13,0,0,0,88.92,145l.33,3.86L91,169.76a14.53,14.53,0,0,0,14.18,13h0a12.91,12.91,0,0,0,7.35-3.11l.75,21.38a25.89,25.89,0,0,0,21.25,23.27,27.58,27.58,0,0,1-6.58-7.86l0-.08a25.93,25.93,0,0,1-3.16-12.66V136.77c0-16.67,8.17-31.21,20.32-39.2C116.74,100,110.63,115,110.33,115.78Z"/><rect class="cls-8" x="137.15" y="126.39" width="34.97" height="13.83" rx="5.69" ry="5.69"/><rect class="cls-9" x="192.45" y="123.95" width="29.28" height="13.83" rx="5.21" ry="5.21"/><path class="cls-10" d="M201.47,195.69,157.24,198a.82.82,0,0,0-.66,1.25c5.27,8.57,18.13,14,28.72,13.42,9.49-.49,14.89-5.63,18.62-13.19A2.6,2.6,0,0,0,201.47,195.69Z"/><path class="cls-11" d="M169.27,146.35a31.16,31.16,0,0,0-26.69.25,3,3,0,0,0-1.33,3.73,2.51,2.51,0,0,0,2.3,1.74,2.24,2.24,0,0,0,1-.23,26.72,26.72,0,0,1,22.88-.22,2.41,2.41,0,0,0,3.25-1.58A3,3,0,0,0,169.27,146.35Z"/><circle class="cls-11" cx="157.73" cy="150.79" r="5.69"/><path class="cls-11" d="M215.74,145a30,30,0,0,0-19,0,2.94,2.94,0,0,0-1.67,3.52,2.42,2.42,0,0,0,3,1.95,25.69,25.69,0,0,1,16.31,0,2.14,2.14,0,0,0,.68.11,2.53,2.53,0,0,0,2.35-2.06A2.94,2.94,0,0,0,215.74,145Z"/><circle class="cls-11" cx="206.28" cy="150.79" r="5.69"/><path class="cls-11" d="M60.13,85.79a50.11,50.11,0,0,1,2.28-5.61L62.33,80A37.1,37.1,0,0,0,60.13,85.79Z"/><path class="cls-11" d="M60.13,85.79a50.11,50.11,0,0,0-2.42,11.15A71.09,71.09,0,0,1,60.13,85.79Z"/><path class="cls-8" d="M230.51,13.75a118.62,118.62,0,0,1-69,26.44c-41,2-63.57,5.82-81.8,20a50.64,50.64,0,0,0-17.34,20,50.11,50.11,0,0,0-2.28,5.61,71.09,71.09,0,0,0-2.42,11.15c-2,14.24-1.35,37.06,11.95,66.87,9.86,22.1,5.22,35.17,1.22,41.29A4.58,4.58,0,0,0,73,211.9c9,3.44,27,8.28,44,.44A25.83,25.83,0,0,1,113.32,201l-.75-21.38a12.91,12.91,0,0,1-7.35,3.11h0a14.53,14.53,0,0,1-14.18-13l-1.8-20.91L88.92,145a13,13,0,0,1,5.7-11.89,12.89,12.89,0,0,1,6.15-2.19h0A13,13,0,0,1,111,134.62a35.73,35.73,0,0,1,31.44-36.78,96.38,96.38,0,0,1,15.64-.47c2.4.11,4.9.29,7.54.56,16.43,1.7,33.46.43,47.53-5.17,24.44-9.72,40-32.51,28.1-75.59A6.73,6.73,0,0,0,230.51,13.75Z"/><path class="cls-12" d="M188.7,150.19a2,2,0,1,0-3.89,1.2L192.08,175a5.26,5.26,0,0,1-4.25,6.75L180,182.94a2,2,0,0,0,.3,4l.3,0,7.88-1.18a9.33,9.33,0,0,0,7.53-12Z"/><g class="cls-13"><path class="cls-9" d="M290.89,37.8a37.77,37.77,0,0,0-45-28.52L126.47,36A37.77,37.77,0,0,0,97.95,81h0a37.77,37.77,0,0,0,45,28.52L262.37,82.78a37.77,37.77,0,0,0,28.52-45Z"/></g><path class="cls-12" d="M99.56,144.29a3.3,3.3,0,0,0-3,3.57l1.69,18.55a3.29,3.29,0,0,0,6.55-.6l-1.69-18.55A3.3,3.3,0,0,0,99.56,144.29Z"/><circle class="cls-6" cx="103.99" cy="159.58" r="3.29"/></g></g></g></svg>