<?xml version="1.0" encoding="UTF-8"?>
<!-- Generator: Adobe Illustrator 23.0.1, SVG Export Plug-In . SVG Version: 6.00 Build 0)  -->
<svg version="1.1" id="Layer_1" xmlns="http://www.w3.org/2000/svg" xmlns:xlink="http://www.w3.org/1999/xlink" x="0px" y="0px" viewBox="0 0 300 300" style="enable-background:new 0 0 300 300;" xml:space="preserve">
<style type="text/css">
	.st0{fill:#8489A4;}
	.st1{clip-path:url(#SVGID_2_);}
	.st2{fill:#94A5B5;}
	.st3{fill:#4E3E3E;}
	.st4{fill:#FF6B4F;}
	.st5{fill:#E24C39;}
	.st6{fill:#F29853;}
	.st7{fill:#FFAD76;}
</style>
<title>depress</title>
<g>
	<g>
		<g id="Layer_3">
			<circle class="st0" cx="150" cy="150" r="150"/>
			<g>
				<defs>
					<circle id="SVGID_1_" cx="150" cy="150" r="150"/>
				</defs>
				<clipPath id="SVGID_2_">
					<use xlink:href="#SVGID_1_" style="overflow:visible;"/>
				</clipPath>
				<g class="st1">
					<path class="st2" d="M144.6,68.3c-1.2,0-2.1-0.9-2.1-2.1c0-0.6,0.2-1.1,0.6-1.5l91.9-92c0.8-0.8,2.2-0.8,3,0       c0.8,0.8,0.8,2.2,0,3l-91.9,92C145.7,68.1,145.2,68.3,144.6,68.3z"/>
					<path class="st2" d="M56.5,156.6c-1.2,0-2.1-1-2.1-2.1c0-0.5,0.2-1.1,0.6-1.5l11.4-11.4c0.8-0.8,2.2-0.8,3,0s0.8,2.2,0,3       L58,156C57.6,156.4,57,156.6,56.5,156.6z"/>
					<path class="st2" d="M0.5,212.6c-0.6,0-1.1-0.2-1.5-0.6c-0.8-0.8-0.8-2.1,0-3c0,0,0,0,0,0l10.6-10.5c0.8-0.8,2.2-0.8,3,0       s0.8,2.2,0,3l0,0L2,212C1.6,212.4,1.1,212.6,0.5,212.6z"/>
					<path class="st2" d="M265.5,100.2c-1.2,0-2.1-0.9-2.1-2.1c0-0.6,0.2-1.1,0.6-1.5l10.6-10.5c0.8-0.8,2.2-0.8,3,0s0.8,2.2,0,3       l0,0L267,99.6C266.6,100,266.1,100.2,265.5,100.2z"/>
					<path class="st2" d="M233.9,131.9c-1.2,0-2.1-0.9-2.1-2.1c0-0.6,0.2-1.1,0.6-1.5l1.6-1.6c0.8-0.8,2.2-0.8,3,0s0.8,2.2,0,3       l-1.6,1.6C235,131.7,234.5,131.9,233.9,131.9z"/>
					<path class="st2" d="M169.8,196.1c-1.2,0-2.1-0.9-2.1-2.1c0-0.6,0.2-1.1,0.6-1.5l38.1-38.2c0.8-0.8,2.2-0.8,3,0s0.8,2.2,0,3       l0,0l-38.1,38.2C170.9,195.9,170.4,196.1,169.8,196.1z"/>
					<path class="st2" d="M53.2,74.9c-0.6,0-1.1-0.2-1.5-0.6c-0.8-0.8-0.8-2.1,0-3c0,0,0,0,0,0l71.1-71.1c0.8-0.8,2.2-0.8,3,0       c0.8,0.8,0.8,2.2,0,3L54.7,74.4C54.3,74.7,53.8,74.9,53.2,74.9z"/>
					<path class="st2" d="M12.6,115.5c-1.2,0-2.1-0.9-2.1-2.1c0-0.6,0.2-1.1,0.6-1.5L34,89.1c0.8-0.8,2.2-0.8,3,0       c0.8,0.8,0.8,2.2,0,3l0,0l-22.8,22.8C13.7,115.3,13.2,115.5,12.6,115.5z"/>
					<path class="st2" d="M-15.3,143.5c-0.6,0-1.1-0.2-1.5-0.6c-0.8-0.8-0.8-2.2,0-3c0,0,0,0,0,0l12.7-12.7c0.8-0.8,2.2-0.8,3,0       c0.8,0.8,0.8,2.2,0,3l0,0l-12.7,12.7C-14.2,143.2-14.7,143.5-15.3,143.5z"/>
					<path class="st2" d="M228.4,59.9c-0.6,0-1.1-0.2-1.5-0.6c-0.8-0.8-0.8-2.1,0-3c0,0,0,0,0,0l2-2c0.8-0.8,2.2-0.8,3,0       c0.8,0.8,0.8,2.2,0,3l-2,2C229.5,59.7,229,59.9,228.4,59.9z"/>
					<path class="st2" d="M117.2,171.2c-1.2,0-2.1-0.9-2.1-2.1c0-0.6,0.2-1.1,0.6-1.5l91.9-92c0.8-0.8,2.2-0.8,3,0       c0.8,0.8,0.8,2.2,0,3l-91.9,92C118.3,171,117.8,171.2,117.2,171.2z"/>
					<path class="st2" d="M29.1,259.4c-1.2,0-2.1-1-2-2.2c0-0.5,0.2-1,0.6-1.4L39,244.5c0.8-0.8,2.2-0.8,3,0s0.8,2.2,0,3l0,0       l-11.4,11.3C30.1,259.2,29.6,259.4,29.1,259.4z"/>
					<path class="st2" d="M238.1,203.1c-1.2,0-2.1-0.9-2.1-2.1c0-0.6,0.2-1.1,0.6-1.5l10.6-10.6c0.8-0.8,2.2-0.8,3,0s0.8,2.2,0,3       l0,0l-10.5,10.5C239.2,202.9,238.7,203.1,238.1,203.1z"/>
					<path class="st2" d="M206.5,234.7c-1.2,0-2.1-0.9-2.1-2.1c0-0.6,0.2-1.1,0.6-1.5l1.6-1.6c0.8-0.8,2.1-0.8,3,0s0.8,2.1,0,3l0,0       l-1.7,1.7C207.6,234.5,207,234.8,206.5,234.7z"/>
					<path class="st2" d="M142.4,298.9c-1.2,0-2.1-0.9-2.1-2.1c0-0.6,0.2-1.1,0.6-1.5l38.1-38.1c0.8-0.8,2.2-0.8,3,0s0.8,2.2,0,3       l0,0l-38.2,38.1C143.5,298.7,143,298.9,142.4,298.9z"/>
					<path class="st3" d="M220.6,154.7H77.7l-5.2-42c-5.2-42.3,24.8-80.9,67.1-86.1c3.1-0.4,6.3-0.6,9.5-0.6l0,0       c42.6,0,77.2,34.6,77.2,77.2c0,3.2-0.2,6.4-0.6,9.5L220.6,154.7z"/>
					<polygon class="st3" points="247.8,246.6 44.9,246.6 77.3,151.5 215.4,151.5      "/>
					<polygon class="st4" points="242.2,312.7 244.7,273.1 154.5,190.2 145.4,190.2 55.1,273.1 57.6,312.7      "/>
					<path class="st5" d="M228.2,312.7h48c-1.1-15.7-2.8-31.3-4.9-46.9c-1-7.8-8.2-13.2-16-12.2c-0.1,0-0.2,0-0.3,0l-8.4,1.3       c-13.6,2.1-23,14.6-21.4,28.2C226.5,293,227.5,302.9,228.2,312.7z"/>
					<path class="st4" d="M69.4,312.7c0.7-9,1.6-18.1,2.7-27.2c1.6-13.6-7.8-26.1-21.4-28.2l-8.4-1.3c-7.8-1.2-15,4.2-16.2,11.9       c0,0.1,0,0.2,0,0.3c-2,14.8-3.6,29.7-4.7,44.5L69.4,312.7z"/>
					<path class="st5" d="M56.1,289.1l1.5,23.6h91.2V190.2h-3.5l-24.9,22.9l-20.8-16.9l-68.4,62.4l10.1,6.1       C50,270,55.5,279.1,56.1,289.1z"/>
					<polygon class="st5" points="267.7,260.7 198.6,196.3 176.6,214 249.5,280.2      "/>
					
						<ellipse transform="matrix(0.9494 -0.314 0.314 0.9494 -43.1937 33.6587)" class="st6" cx="82.9" cy="150.9" rx="11.5" ry="24.6"/>
					<path class="st6" d="M204.5,147.3c-4.3,12.9-2.9,25,3.2,27s14.4-6.9,18.6-19.8s2.9-25-3.2-27S208.8,134.4,204.5,147.3z"/>
					<path class="st7" d="M183.8,213.3l-18,14.1c-9.7,7.7-23.5,7.7-33.2,0l-18-14.1c-15.1-11.8-23.9-29.9-23.9-49.1v-40       c0-30,24.3-54.2,54.2-54.2h8.5c29.9,0,54.2,24.3,54.2,54.2v40C207.6,183.3,198.8,201.4,183.8,213.3z"/>
					<path class="st6" d="M181.1,131.2c-21-7-43.7-7-64.7,0l-15,6.4v-3.6c0-32.1,26.3-58,58.7-58h9.2c3.6,0,7.2,0.3,10.8,1       c-8.2-4.6-17.4-7-26.7-7h-8.5c-29.9,0-54.2,24.2-54.3,54.2v40c0,17.1,7,33.4,19.3,45.2c-5.6-9.9-8.6-21.2-8.6-32.6l0,0       c0-2.9,2.3-5.2,5.2-5.3c0.3,0,0.7,0,1,0.1c2.4,0.5,4.8,0.7,7.2,0.7c8.4,0.1,16.5-2.7,23.1-7.9c6.3-5.1,15.3-5.1,21.6,0       c14.3,11.2,34.5,10.5,48.1-1.6v-20.3L181.1,131.2z"/>
					<path class="st3" d="M121.9,164.3c-6.2,0-12.2-2.5-16.5-7c-1.4-1.5-1.4-4,0.2-5.4c1.5-1.4,3.9-1.4,5.3,0.1       c5.9,6.1,15.5,6.2,21.6,0.4c0.1-0.1,0.2-0.2,0.4-0.4c1.5-1.5,3.9-1.5,5.4,0c1.5,1.5,1.5,3.8,0.1,5.3       C134.1,161.8,128.1,164.3,121.9,164.3z"/>
					<path class="st3" d="M102.4,142.4c-2.1,0-3.8-1.7-3.8-3.8c0-1.8,1.2-3.3,2.9-3.7c10.6-2.6,20.7-6.8,30.2-12.3       c1.8-1.1,4.2-0.5,5.3,1.4s0.5,4.2-1.4,5.3c-10.1,5.9-20.9,10.3-32.2,13.2C103,142.4,102.7,142.4,102.4,142.4z"/>
					<path class="st3" d="M176.4,164.3c-6.2,0-12.2-2.5-16.5-7c-1.4-1.5-1.4-4,0.2-5.4c1.5-1.4,3.9-1.4,5.3,0.1       c5.9,6.1,15.5,6.2,21.6,0.4c0.1-0.1,0.2-0.2,0.4-0.4c1.5-1.5,3.9-1.5,5.4,0c1.5,1.5,1.5,3.8,0.1,5.3       C188.6,161.8,182.6,164.3,176.4,164.3z"/>
					<path class="st3" d="M195.9,142.4c-0.3,0-0.6,0-0.9-0.1c-11.3-2.8-22.2-7.2-32.2-13.1c-1.8-1-2.5-3.4-1.4-5.2       c1-1.8,3.4-2.5,5.2-1.4c0,0,0,0,0.1,0c9.4,5.5,19.6,9.7,30.2,12.3c2.1,0.5,3.3,2.6,2.8,4.6       C199.2,141.3,197.7,142.5,195.9,142.4L195.9,142.4z"/>
					<path class="st6" d="M157.4,181.9c1,0,1.8-0.8,1.8-1.8c0-0.5-0.2-1-0.6-1.3c-5.1-5.2-13.5-5.2-18.6-0.1c0,0-0.1,0.1-0.1,0.1       c-0.7,0.7-0.8,1.8-0.1,2.5c0.3,0.4,0.8,0.6,1.3,0.6H157.4z"/>
					<path class="st4" d="M142.1,208c-0.8,0-1.5,0.7-1.5,1.5c0,0.4,0.2,0.8,0.5,1.1c4.4,4.5,11.6,4.5,16.1,0.1c0,0,0.1-0.1,0.1-0.1       c0.6-0.6,0.7-1.5,0.1-2.1c-0.3-0.3-0.7-0.5-1.1-0.5H142.1z"/>
					<path class="st4" d="M162.8,203.7c2.7,0,3.9-2.1,2-3.2c-9.6-5.5-21.5-5.5-31.2,0c-2,1.1-0.7,3.2,2,3.2H162.8z"/>
					<path class="st3" d="M118.1,192.5c-2.5,0-4.6-2.1-4.6-4.6v0v-87.3c-0.3-19.6,15.3-35.7,34.8-36c19.6-0.3,35.7,15.3,36,34.8       c0,0.4,0,0.8,0,1.2v9.1c0.1,2.5-1.8,4.7-4.4,4.8c-2.5,0.1-4.7-1.8-4.8-4.4c0-0.1,0-0.3,0-0.4v-9.1       c0.3-14.5-11.2-26.4-25.7-26.7S123,85.2,122.7,99.6c0,0.3,0,0.7,0,1v87.3C122.7,190.5,120.6,192.5,118.1,192.5       C118.1,192.5,118.1,192.5,118.1,192.5z"/>
					<path class="st4" d="M142.1,312.7c0-0.4,0.1-0.9,0.1-1.3c0-7.8-6.3-14.1-14.1-14.1c-7.8,0-14.1,6.3-14.1,14.1       c0,0.4,0,0.9,0.1,1.3H142.1z"/>
				</g>
			</g>
		</g>
	</g>
</g>
</svg>